# xmcd CD database file
#
# Track frame offsets:
#	150
#	18972
#	40467
#	61562
#	83485
#	110510
#	125080
#	137710
#	154370
#	170370
#	188310
#	209957
#	241437
#
# Disc length: 3655 seconds
#
# Revision: 7
# Processed by: cddbd v1.5.2PL0 Copyright (c) Steve Scherf et al.
# Submitted via: CDex 1.50
#
DISCID=ae0e450d
DTITLE=Verschiedene - Bandits [Music From The MGM Motion Picture]
DYEAR=2001
DGENRE=Soundtrack
TTITLE0=Gallows Pole - Jimmy Page, Robert Plant
TTITLE1=Tweedle Dee and Tweedle Dum - Bob Dylan
TTITLE2=Holding Out For A Hero - Bonnie Tyler
TTITLE3=Twist In My Sobriety - Tanita Tikaram
TTITLE4=Rudiger - Mark Knopfler
TTITLE5=Just Another - Pete Yorn
TTITLE6=Walk On By (Album Version) - Aretha Franklin
TTITLE7=Superman (It's Not Easy) - Five for Fighting
TTITLE8=Crazy 'Lil Mouse - In Bloom
TTITLE9=Just The Two Of Us - Grover Washington, Jr., Bill Withers
TTITLE10=Wildfire - Michael Martin Murphey
TTITLE11=Total Eclipse Of The Heart - Bonnie Tyler
TTITLE12=Bandits Suite - Christopher Young
EXTD=YEAR: 2001
EXTT0=
EXTT1=
EXTT2=
EXTT3=
EXTT4=
EXTT5=
EXTT6=
EXTT7=
EXTT8=
EXTT9=
EXTT10=
EXTT11=
EXTT12=
PLAYORDER=
